<svg xmlns="http://www.w3.org/2000/svg" viewBox="0 0 192 192" role="img" aria-label="AMIC Vault">
  <rect width="192" height="192" rx="42" fill="#174f56" />
  <path d="M48 72.5C48 59.5 58.5 49 71.5 49h49C133.5 49 144 59.5 144 72.5v47C144 132.5 133.5 143 120.5 143h-49C58.5 143 48 132.5 48 119.5v-47Z" fill="#f7f9fb" />
  <path d="M71 82.5C71 73.4 78.4 66 87.5 66h17C113.6 66 121 73.4 121 82.5V91h-12V82.5c0-2.5-2-4.5-4.5-4.5h-17c-2.5 0-4.5 2-4.5 4.5V91H71v-8.5Z" fill="#174f56" />
  <path d="M68 89h56v38H68V89Z" fill="#d7b46a" />
  <path d="M94 105h4v11h-4v-11Z" fill="#174f56" />
  <circle cx="96" cy="104" r="7" fill="#174f56" />
  <path d="M58 55 96 35l38 20" fill="none" stroke="#d7b46a" stroke-width="9" stroke-linecap="round" stroke-linejoin="round" />
</svg>
